<svg viewBox="0 0 115 25" xmlns="http://www.w3.org/2000/svg" xmlns:xlink="http://www.w3.org/1999/xlink">
  <style>
    svg {
      width: 110vw;
      position: fixed;
      top: -5px;
      transform: rotate(360deg);
      overflow: visible;
    }

    .wave {
      animation: wave 3s linear infinite;
    }

    #wave2 {
      fill: #FF9933; /* Kesariya */
      animation-duration: 6s;
      animation-direction: reverse;
      opacity: 0.9;
    }

    #wave3 {
      fill: #008000; /* Green */
      animation-duration: 3s;
      opacity: 0.6;
    }

    @keyframes wave {
      to { transform: translateX(-100%); }
    }
  </style>

  <defs>
    <filter id="anim">
      <feGaussianBlur in="SourceGraphic" stdDeviation="1" result="blur" />
      <feColorMatrix in="blur" mode="matrix" values="
           1 0 0 0 0
           0 1 0 0 0
           0 0 1 0 0
           0 0 0 13 -9" result="anim" />
      <xfeBlend in="SourceGraphic" in2="anim" />
    </filter>

    <path id="wave" d="M 0,10 C 30,10 30,15 60,15 90,15 90,10 120,10 150,10 150,15 180,15 210,15 210,10 240,10 v 28 h -240 z" />
  </defs>

  <!-- Kesariya and Green Waves -->
  <use id="wave2" class="wave" xlink:href="#wave" x="0" y="0" />
  <use id="wave3" class="wave" xlink:href="#wave" x="0" y="-2" />

  <!-- Ashoka Chakra -->
  <circle cx="57.5" cy="12.5" r="3.5" fill="none" stroke="#000080" stroke-width="0.5" />
  <g transform="translate(57.5,12.5)">
    <g stroke="#000080" stroke-width="0.3">
      <!-- 24 spokes (simplified for brevity) -->
      <line x1="0" y1="-3.5" x2="0" y2="3.5" />
      <line x1="1.75" y1="-3.03" x2="-1.75" y2="3.03" />
      <line x1="3.03" y1="-1.75" x2="-3.03" y2="1.75" />
      <line x1="3.5" y1="0" x2="-3.5" y2="0" />
      <line x1="3.03" y1="1.75" x2="-3.03" y2="-1.75" />
      <line x1="1.75" y1="3.03" x2="-1.75" y2="-3.03" />
      <!-- Add more lines for full 24 spokes if needed -->
    </g>
  </g>
</svg>
